<?xml version="1.0" encoding="utf-8"?>
<!-- Generator: Adobe Illustrator 23.0.6, SVG Export Plug-In . SVG Version: 6.00 Build 0)  -->
<svg version="1.1" id="Layer_1" xmlns="http://www.w3.org/2000/svg" xmlns:xlink="http://www.w3.org/1999/xlink" x="0px" y="0px"
	 viewBox="0 0 1055 230" style="enable-background:new 0 0 1055 230;" xml:space="preserve">
<style type="text/css">
	.st0{fill:#EFEFEF;}
</style>
<g>
	<path class="st0" d="M284.9,2.4v55.2h-9.1V14.8l-16.2,42.9h-2.8l-16.1-42.7v42.7h-4.7V2.4h9.8l14.8,39.4l14.8-39.4H284.9z"/>
	<path class="st0" d="M323.6,46.2h-20.7l-3.9,11.4H294l19-55.2h5l19.1,55.2h-9.5L323.6,46.2z M322.1,41.7l-8.9-25.6l-8.8,25.6H322.1
		z"/>
	<path class="st0" d="M341.9,51.1l2.5-3.6h0.8c3.2,3.7,7.7,6.6,13.7,6.6c6.8,0,10.9-3.4,10.9-9.2c0-13.7-25.6-10.7-25.6-28.4
		c0-8.8,6.9-15.1,17.5-15.1c5.4,0,10.2,1.4,14.1,5.4l-2.4,3.6h-0.9c-2.8-3.2-6.6-4.6-10.8-4.6c-5.9,0-9.3,2.7-9.3,7.5
		c0,12,25.6,9.7,25.6,28.9c0,9.8-7.6,16.3-19,16.3C351.9,58.6,346,55.7,341.9,51.1z"/>
	<path class="st0" d="M384.8,51.1l2.5-3.6h0.8c3.2,3.7,7.7,6.6,13.7,6.6c6.8,0,10.9-3.4,10.9-9.2c0-13.7-25.6-10.7-25.6-28.4
		c0-8.8,6.9-15.1,17.5-15.1c5.4,0,10.2,1.4,14.1,5.4l-2.4,3.6h-0.9c-2.8-3.2-6.6-4.6-10.8-4.6c-5.9,0-9.3,2.7-9.3,7.5
		c0,12,25.6,9.7,25.6,28.9c0,9.8-7.6,16.3-19,16.3C394.9,58.6,388.9,55.7,384.8,51.1z"/>
	<path class="st0" d="M456.3,46.2h-20.7l-3.9,11.4h-5.1l19-55.2h5l19.1,55.2h-9.6L456.3,46.2z M454.8,41.7l-8.9-25.6l-8.8,25.6
		H454.8z"/>
	<path class="st0" d="M473.9,30c0-18.4,8.7-28.6,21.9-28.6c5.1,0,11.5,2.3,15,8.2l-2.4,3.5h-0.9c-2.9-4.8-6.3-7.2-11.7-7.2
		c-7.9,0-11.7,4.8-11.7,16.3v16.1c0,10.4,3,15.8,11.8,15.8c5.8,0,8.9-2.5,11.9-6.3h0.8l2.1,2.6c-3.5,5.9-9.9,8.2-15,8.2
		C482.6,58.6,473.9,48.2,473.9,30z"/>
	<path class="st0" d="M556.4,2.4v55.2h-9.2V31h-17.8v26.6h-9.2V2.4h9.2v24.2h17.8V2.4H556.4z"/>
	<path class="st0" d="M605.2,41.8c0,10.2-5.1,16.7-16.5,16.7c-12.2,0-18.3-6.8-18.3-16.8V2.4h9.2v39.9c0,8.7,4.3,11.8,10.4,11.8
		c6.2,0,10.5-3.2,10.5-11.8V2.4h4.7V41.8z"/>
	<path class="st0" d="M615.1,51.1l2.5-3.6h0.8c3.2,3.7,7.7,6.6,13.7,6.6c6.8,0,10.9-3.4,10.9-9.2c0-13.7-25.6-10.7-25.6-28.4
		c0-8.8,6.9-15.1,17.5-15.1c5.4,0,10.2,1.4,14.1,5.4l-2.4,3.6h-0.9c-2.8-3.2-6.6-4.6-10.8-4.6c-5.9,0-9.3,2.7-9.3,7.5
		c0,12,25.7,9.7,25.7,28.9c0,9.8-7.6,16.3-19,16.3C625.1,58.6,619.2,55.7,615.1,51.1z"/>
	<path class="st0" d="M662.2,2.4h30.3l1.5,4.5h-22.7v19.6h16.9v4.5h-16.9v22.2h24.2l-1.5,4.5h-31.9V2.4z"/>
	<path class="st0" d="M724.2,6.9v50.7h-9.1V6.9H700l1.4-4.5h36.3l1.5,4.5H724.2z"/>
	<path class="st0" d="M767.6,6.9v50.7h-9.1V6.9h-15.1l1.4-4.5h36.3l1.5,4.5H767.6z"/>
	<path class="st0" d="M785.1,51.1l2.5-3.6h0.8c3.2,3.7,7.7,6.6,13.7,6.6c6.8,0,10.9-3.4,10.9-9.2c0-13.7-25.6-10.7-25.6-28.4
		c0-8.8,6.9-15.1,17.5-15.1c5.4,0,10.2,1.4,14.1,5.4l-2.4,3.6h-0.9c-2.8-3.2-6.6-4.6-10.8-4.6c-5.9,0-9.3,2.7-9.3,7.5
		c0,12,25.6,9.7,25.6,28.9c0,9.8-7.6,16.3-19,16.3C795.2,58.6,789.3,55.7,785.1,51.1z"/>
</g>
<g>
	<path class="st0" d="M15.9,62.8h1.8c0.9,0,2,0.3,3.4,1c1.4,0.7,2.8,1,4.3,1l4.6-1.5h6.4h3.1c1.2,0,2,0.5,2.5,1.6
		c0.2,0.4,0.3,1,0.3,1.6c0,2.3-0.3,3.9-1,4.8c-0.7,0.9-1.5,1.5-2.5,1.8c-1,0.3-2.1,0.4-3.3,0.5c-1.1,0.1-2.2,0.3-3.3,0.7
		c-1,0.4-1.9,1.3-2.5,2.5c-0.7,1.3-1,3.3-1,6c0,0.9,0.2,2.2,0.7,4.1c0.4,1.9,0.7,3.2,0.7,4.1v4.6c0,2.2,0.7,4.1,2.1,5.7
		c1.4,1.6,3.3,2.5,5.6,2.5c0.9,0,1.6-0.2,2.3-0.5c0.4-0.1,0.8-0.3,1-0.5l5.9,1h4.9h2.8c0.9,0,1.7,0.1,2.6,0.2c1.7,0.2,3,0.8,3.8,1.6
		c0.5,0,1-0.1,1.4-0.2c0.4-0.2,0.7-0.2,0.9-0.2c0.4-0.2,0.9-0.5,1.3-0.8c0.4-0.3,0.8-0.5,1-0.5H72c0.7-0.5,1.3-1.2,1.8-2
		c0.5-0.8,0.8-1.7,0.8-2.5V97V86.5l-1.8-8.2v-2.8c0-1.1-0.4-1.9-1.1-2.3c-0.8-0.4-1.6-0.8-2.5-1.1c-0.9-0.3-1.7-0.8-2.5-1.4
		c-0.8-0.6-1.1-1.7-1.1-3.4c0-1.3,0.7-2.5,2-3.7c1.3-1.1,2.8-1.7,4.4-1.7c1.4,0.5,2.9,1,4.4,1.5c1.3,0.3,2.8,0.6,4.3,0.9
		c1.6,0.3,3.2,0.4,4.8,0.4h1.8H92c1.1,0,2.3,0.1,3.8,0.4c1.4,0.3,2.7,0.7,3.9,1.3c1.1,0.6,2.1,1.4,3,2.5c0.8,1,1.2,2.4,1.2,4
		l-0.8,1.8l-3.8,0.8h-4.4c-0.8,0-1.7,0.7-2.9,2.1c-1.1,1.4-1.7,2.7-1.7,3.8v11v6.4c0,0.7,0.1,1.9,0.4,3.6c0.3,1.7,0.4,3,0.4,3.8
		c0,0.4-0.2,0.9-0.5,1.5c-0.3,0.5-0.6,1.1-0.8,1.6c-0.5,1.4-0.8,2.5-0.8,3.1v4.6v4.6c0,1.6,0.1,3.2,0.4,4.8c0.3,1.5,0.4,3,0.4,4.4
		c0,0.9-0.1,1.8-0.4,2.8c-0.3,1-0.4,2.2-0.4,3.6c0,0.8-0.1,1.4-0.2,1.8c-0.1,0.4-0.2,0.9-0.2,1.3c-0.1,0.4-0.1,0.9,0,1.4
		c0.1,0.5,0.2,1.1,0.4,1.9c0.3,1.2,1.3,2.2,2.9,3c1.6,0.8,3.3,1.6,5.1,2.2c1.8,0.7,3.4,1.3,4.8,2c1.4,0.7,2.1,1.4,2.1,2.3
		c0,0.8-0.2,1.4-0.7,1.9c-0.5,0.5-1,1-1.6,1.4c-0.7,0.4-1.4,0.9-2.3,1.3h-9h-4.6H81l-7.7-1.8l-4.6,1.8c-0.3,0-0.8,0-1.5-0.1
		c-0.7-0.1-1.3-0.2-2-0.3c-0.7-0.2-1.2-0.5-1.7-0.9c-0.5-0.4-0.7-1.1-0.7-2c0-1.2,0.5-2.2,1.6-3c1.1-0.8,2.3-1.6,3.6-2.6
		c1.3-1,2.5-2.2,3.6-3.7c1.1-1.5,1.6-3.5,1.6-6.1v-4.6v-4.6v-4.9v-4.6c0-0.8-0.3-1.7-0.9-2.9c-0.6-1.1-1.3-1.7-2.2-1.7h-4.6h-5.9
		c-0.8,0-1.9-0.3-3.3-0.9c-1.4-0.6-2.5-0.9-3.1-0.9H50h-4.6H41h-3.3c-2.3,0-4.2,0.5-5.6,1.5c-1.4,1-2.1,2.6-2.1,4.9v10.5
		c-0.7,1.9-1,3-1.1,3.4c-0.1,0.4-0.2,0.9-0.2,1.6c0,0.8,0.2,1.6,0.7,2.5c0.4,0.9,0.7,2,0.7,3.4c-0.7,1.6-0.5,3,0.6,4
		c1,1,2.3,2,3.9,2.9c1.5,0.9,3,1.8,4.4,2.7c1.4,0.9,2.1,1.9,2.1,3.1c0,0.3-0.2,0.7-0.7,1.1c-0.5,0.4-1.1,0.7-1.7,0.9
		c-0.7,0.2-1.3,0.4-2,0.6c-0.7,0.2-1.1,0.2-1.5,0.2c-0.5,0-1.3-0.1-2.2-0.4c-0.9-0.3-2-0.6-3.1-1c-1.1-0.4-2.4-0.7-3.7-1
		c-1.3-0.3-2.6-0.4-3.8-0.4c-0.5,0.3-1.1,0.6-1.6,0.8c-0.5,0.2-1.1,0.4-1.6,0.5c-0.5,0.1-1,0.2-1.4,0.2h-1.8h-4.6H8.6
		c-1.5,0-3-0.4-4.5-1.1c-1.5-0.8-2.2-2.1-2.2-3.9c0-1.4,0.2-2.8,0.6-4.3c0.4-1.4,1.4-2.1,3-2.1l3.1-0.8c0.9,0,1.9-0.6,2.9-1.8
		c1.1-1.2,1.6-2.1,1.6-2.8v-6.4V128c0-0.9-0.3-2.3-0.9-4.4c-0.6-2.1-0.9-4.3-0.9-6.6v-7.7c0-0.3,0.1-0.9,0.2-1.8
		c0.2-0.9,0.4-1.8,0.7-2.8c0.3-1,0.5-1.9,0.7-2.8c0.2-0.9,0.2-1.5,0.2-1.8l-1.8-7.7c0-0.9,0.3-2,0.8-3.4c0.3-0.8,0.7-1.6,1-2.5v-11
		c0-0.8-0.6-1.4-1.9-1.8C10,73.3,8.6,73,7,72.7c-1.6-0.3-3-0.5-4.3-0.8c-1.3-0.3-1.9-0.6-1.9-0.9c0-2.1,0.6-3.9,1.9-5.4
		c1.3-1.5,2.6-2.3,4-2.3l8.2-0.5H15.9z"/>
	<path class="st0" d="M136.7,76c1.9,0,3.4,0.7,4.6,2c1.2,1.4,1.8,2.8,1.8,4.3l-1.5,4.6c0.7,0.7,1.1,1.6,1.3,2.8
		c0.1,0.5,0.2,1.1,0.2,1.8c0,2.2-0.2,4.2-0.7,6.1c-0.5,1.9-0.7,3.9-0.7,6.2v1.3c0,0.5-0.1,1.2-0.2,1.9c-0.1,0.7-0.3,1.4-0.5,2
		c-0.2,0.8-0.4,1.6-0.7,2.5v1.8c0,1.2-0.2,2.2-0.6,2.9c-0.4,0.8-0.8,1.7-1.2,3c-0.2,0.9-0.6,1.8-1.1,2.7c-0.5,0.9-0.7,2-0.7,3.2
		c0,0.4,0.1,1,0.3,1.7c0.2,0.7,0.5,1.4,1,2.1c0.4,0.7,1,1.3,1.6,1.8c0.6,0.5,1.3,0.7,2,0.7c0.9,0,1.7-0.3,2.4-0.8
		c0.7-0.5,1.3-1.1,1.7-1.8c0.5-0.5,1.1-1,1.7-1.4c0.6-0.4,1.3-0.6,2-0.6h3.1c0.7,0,1,0.3,1.1,1c0.1,0.7,0.2,1.4,0.2,2.3
		c0,0.3-0.5,1-1.5,2c-1,1-2.1,2-3.3,3.2c-1.2,1.1-2.4,2.2-3.6,3.3c-1.2,1-2,1.7-2.5,2c-0.3,0.8-1,2.1-2.1,3.9
		c-1.1,1.9-2.3,3.7-3.6,5.7c-1.3,1.9-2.7,3.6-4.2,5.1c-1.5,1.5-2.8,2.2-3.9,2.2c-0.8,0-1.6-0.2-2.5-0.7c-0.9-0.5-1.8-1.1-2.5-2
		c-0.8-0.8-1.4-1.7-1.9-2.5c-0.5-0.9-0.7-1.7-0.7-2.6v-2.6c0-0.9-0.1-1.6-0.2-2.3c-0.1-0.7-0.5-1-1.1-1v-3.1l1.3-4.6v-7.7
		c0-1.6,0.2-3,0.7-3.9c0.4-1,0.7-2.2,0.7-3.8v-1.5c0-0.8,0.2-1.9,0.7-3.3c0.5-1.4,1-3,1.6-4.6c0.5-1.6,1.1-3.3,1.6-4.8
		c0.5-1.6,0.7-3,0.7-4.2c0-0.9-0.4-1.8-1.1-2.9c-0.7-1-1.9-1.6-3.5-1.6c-0.7,0-1.2,0.2-1.7,0.7c-0.5,0.4-1.9,0.7-4.2,0.7
		c-0.2-0.1-0.4-0.4-0.7-0.8c-0.4-0.7-0.7-1.5-0.7-2.5v-2.6c0-1,1-2.4,2.9-4.3c1.9-1.9,4.1-3.8,6.6-5.7c2.5-1.9,4.8-3.6,7.1-5.1
		C134.6,76.8,136.1,76,136.7,76z M137.2,37.4c0.4,0,1-0.1,1.7-0.2c0.7-0.2,1.4-0.3,2.2-0.5c0.8-0.2,1.5-0.3,2.2-0.5
		c0.7-0.2,1.2-0.2,1.6-0.2c1.5,0.5,2.5,1.5,2.9,2.8c0.4,1.3,1.1,2.7,2,4.1c0,0.9,0.1,1.7,0.2,2.6c0.2,0.9,0.2,1.7,0.2,2.5
		c0,0.7-0.2,1.4-0.7,2.4c-0.4,0.9-0.7,2.1-0.7,3.5c-0.2,0.8-0.5,1.7-0.9,2.8c-0.4,1.1-0.9,2.1-1.5,3c-0.6,0.9-1.3,1.7-2.1,2.3
		c-0.8,0.6-1.8,0.8-2.9,0.6c-1.5,0-3.2-0.5-5-1.6c-1.8-1-3.1-2.4-4-4c-0.8-0.7-1-1.6-0.8-3c0.2-1.3,0.3-2.5,0.3-3.4
		c0-2.9,0.5-5.4,1.5-7.2C134.6,41.4,135.8,39.4,137.2,37.4z"/>
	<path class="st0" d="M196.4,75.5c1.6,0,3.1,0.8,4.4,2.3c1.3,1.5,2,3.1,2,4.6c0,1.2-0.9,2.2-2.6,3c-1.7,0.8-3.7,1.6-5.9,2.3
		c-2.2,0.7-4.3,1.4-6.5,2c-2.1,0.7-3.5,1.4-4.2,2.1c-1,1-1.7,2.1-2.1,3.4c-0.4,1.3-0.7,2.5-0.7,3.9s0.2,2.6,0.7,3.8
		c0.4,1.2,1,2.3,1.6,3.3c0.8,1.5,1.7,3.1,2.7,4.8c1,1.7,2,3.6,2.9,5.8c0.9,2.2,1.6,4.6,2.2,7.4c0.6,2.7,0.9,5.8,0.9,9.2
		c0,3-1,5.9-2.9,8.9c-2,3-4.5,5.7-7.5,7.9c-2.4,1.3-4.3,2.4-5.6,3.2c-1.3,0.8-2.5,1.5-3.4,2c-1,0.5-1.9,0.8-2.9,1
		c-0.9,0.2-2.1,0.2-3.5,0.2H160c-0.5,0-1.3,0.1-2.1,0.2c-0.9,0.1-1.7,0.3-2.6,0.5c-1.1,0.2-2.2,0.4-3.4,0.7h-1h-3.6
		c-3.1,0-4.6-1.5-4.6-4.4c0-0.8,0.5-2,1.5-3.6c1-1.6,2.2-3.2,3.7-4.8c1.5-1.5,3-2.9,4.7-4.1c1.6-1.2,3.1-1.8,4.3-1.8
		c0.3,0,0.9,0.2,1.6,0.7c0.8,0.5,1.7,1,2.7,1.6c1,0.5,2.2,1.1,3.5,1.6c1.3,0.5,2.8,0.7,4.4,0.7c1.1,0,2.1-0.3,3-1
		c0.9-0.7,1.7-1.4,2.4-2.4c0.7-0.9,1.1-1.9,1.5-2.9c0.3-1,0.5-1.9,0.5-2.7c0-1.9-0.7-4.1-2.1-6.8c-1.4-2.7-3-5.4-4.8-8.2
		c-1.7-2.8-3.3-5.4-4.8-7.9c-1.4-2.5-2.1-4.6-2.1-6.2v-1.8c0.4-1.9,1.1-3.8,2-5.7c0.9-2,1.9-3.8,2.9-5.4c1.1-1.6,2.3-3.1,3.6-4.3
		c1.3-1.3,2.7-2,4.3-2.4c0.8-0.4,1.6-1.1,2.4-2.1c0.8-1,1.6-1.9,2.2-2.8c0.9-0.9,1.7-1.7,2.4-2.5c0.7-0.8,1.4-1.3,2.2-1.6
		c0.9-0.8,2.2-1.2,4.1-1.3c1.9-0.1,3.2-0.2,4.1-0.2H196.4z"/>
	<path class="st0" d="M236.4,52.4c1,0,1.9,0,2.9,0.1c0.9,0.1,1.8,0.2,2.6,0.5c0.8,0.3,1.5,0.7,2,1.3c0.5,0.6,0.7,1.4,0.7,2.5
		c0,0.7-0.8,1.9-2.3,3.7c-1.5,1.8-3.2,3.8-5,5.9s-3.5,4.2-5,6.2c-1.5,2-2.3,3.6-2.3,4.7c0,0.9,0.2,1.5,0.7,2
		c0.5,0.4,1.1,0.7,1.7,0.9s1.3,0.3,2,0.3c0.7,0.1,1.2,0.1,1.6,0.1h5.4c0.2-0.2,0.5-0.5,1-0.8c0.9-0.7,1.6-1,2.1-1
		c1.6,0,2.8,0.7,3.5,2c0.7,1.3,1.1,2.8,1.1,4.4v1.3v3.1c0,1.2-0.7,2.1-2,2.8c-1.3,0.7-2.8,1.1-4.3,1.5c-1.6,0.3-3.1,0.5-4.6,0.7
		c-1.5,0.1-2.4,0.2-2.7,0.2c-1.6,0-2.6-0.1-2.8-0.2c-0.2-0.2-0.7-0.2-1.3-0.2h-3.3c-0.7,0-1.6,0.3-2.8,1c-1.2,0.7-1.8,1.4-1.8,2.3
		c0,1.2-0.1,2.3-0.2,3.2c-0.1,0.9-0.2,1.7-0.3,2.4c-0.1,0.8-0.2,1.5-0.3,2.1c-0.3,0.7-0.7,1.3-1,1.8c-0.5,1.1-0.8,2-0.8,2.8v1.8
		c0,1.9-0.3,3.9-0.8,6.1c-0.5,2.2-1,3.5-1.5,3.9c-0.5,0.5-1,1.1-1.3,1.6c-0.3,0.5-0.5,1.8-0.5,3.9v3.3c0,0.7,0.1,1.4,0.3,2.4
		c0.2,0.9,0.6,1.8,1.1,2.5c0.5,0.8,1.2,1.4,2,2c0.8,0.5,1.7,0.8,2.9,0.8c1.4,0,2.6-0.4,3.6-1.1c0.4-0.3,0.9-0.7,1.3-1.1
		c0.9,0,1.6,0.2,2,0.7c0.5,0.5,1,1,1.4,1.6c0.4,0.7,0.8,1.4,1.1,2.3c0,0.9-0.4,2-1.1,3.4c-0.7,1.4-1.6,2.8-2.5,4.2
		c-1,1.4-2,2.6-3.1,3.6c-1.1,1-2,1.6-2.8,1.6c-0.8,0-1.5,0.6-2.2,1.9c-0.7,1.3-1.1,2.2-1.1,2.7c-0.3,0-0.9,0.1-1.8,0.3
		c-0.9,0.2-1.7,0.4-2.6,0.7c-1.1,0.3-2.2,0.6-3.3,0.8c-1.4,0-2.5-0.1-3.4-0.2c-0.8-0.2-1.2-0.7-1.2-1.6c-0.3-0.2-0.8-1-1.5-2.4
		c-0.7-1.4-1.3-2.9-2-4.5c-0.7-1.6-1.2-3.2-1.7-4.8c-0.5-1.6-0.7-2.7-0.7-3.4v-7.7c0-0.4,0.1-1.4,0.4-3c0.3-1.6,0.6-3.3,1-5.2
		c0.4-1.9,0.7-3.8,1-5.7c0.3-1.9,0.4-3.5,0.4-4.7v-2.8c0.9-2.5,1.7-4.8,2.5-6.7c0.5-1.7,1.1-3.4,1.6-4.8c0.5-1.5,0.8-2.3,0.8-2.5
		v-5.1c0-1.4-0.4-2.3-1.3-2.6c-0.7-0.5-1.4-1.1-2.1-1.6c-0.8-0.5-1.1-1.3-1.1-2.1c0-0.7,0.2-1.3,0.7-2c0.5-0.7,1.1-1.4,1.8-2.2
		c0.7-0.8,1.4-1.6,2.1-2.4c0.7-0.8,1.3-1.6,1.7-2.4c0.8-1.6,1.5-2.6,2.2-3c0.7-0.4,1.5-0.9,2.4-1.6c1.4-1.6,2.9-3,4.6-4.1
		c1.6-1.1,3.2-2.8,4.6-5.1c0.9-1.5,1.5-3.1,2-4.6c0.4-1.5,1.4-2.7,2.9-3.6c1.4-0.4,2.7-1.3,3.8-2.5
		C234.9,53.1,235.7,52.4,236.4,52.4z"/>
	<path class="st0" d="M270.7,77c1.5,0,3.4,0.1,5.7,0.2c2.2,0.1,4.1,0.5,5.7,1.1c1.6,0,2.7,0.7,3.2,2c0.5,1.3,1.1,2.8,1.9,4.4
		c0.4,0.4,1,1,1.6,1.8c0.6,0.8,1.1,1.6,1.6,2.4c0.5,0.8,0.9,1.7,1.2,2.5c0.3,0.9,0.5,1.6,0.5,2.3l-1.3,14.6c0,3.1-0.7,6.4-2,10.2
		c-1.3,3.7-3.2,7-5.7,10c-0.9,0.9-1.5,1.8-1.9,2.9c-0.4,1-0.8,2.1-1.1,3.2c-0.4,1.1-0.8,2.2-1.3,3.4c-0.5,1.1-1.2,2.3-2,3.4
		c-0.7,0.8-1.4,1.7-2.2,2.8c-0.8,1.1-1.7,2.2-2.6,3.4c-0.9,1.1-1.9,2.2-2.9,3.1c-1,0.9-2.1,1.6-3.2,2c-1.6,0.9-3,1.6-4.1,2.3
		c-1.1,0.7-2.1,1.2-2.9,1.6c-0.9,0.4-1.8,0.7-2.7,0.9s-1.9,0.2-3,0.2c-1.6,0-3.2-0.4-4.6-1.1c-1.4-0.8-2.7-1.8-3.7-3
		c-1-1.3-1.9-2.7-2.5-4.3c-0.7-1.6-1-3.2-1-4.8v-11c0-0.7-0.2-1.3-0.7-1.8c-0.4-0.5-0.7-2.1-0.7-4.6c-0.1-3.2,0.7-7,2.3-11.5
		c1.6-4.5,3.6-8.9,5.8-13.2c2.2-4.3,4.5-8.1,6.7-11.5c2.2-3.3,4-5.4,5.2-6.1c1.2-0.8,2.2-1.6,3-2.5c0.8-0.9,1.6-1.8,2.4-2.5
		c0.8-0.8,1.6-1.4,2.4-1.9C268.3,77.3,269.3,77,270.7,77z M271.5,95.7c-1.7,0-3.5,0.7-5.3,2.2c-1.8,1.5-3.5,3.2-5,5.1
		c-1.5,1.9-2.9,3.8-4.1,5.7c-1.2,1.9-2,3.3-2.5,4.2l-1.6,6.2c-0.4,1.5-0.8,3-1.1,4.4c-0.3,1.4-0.4,2.3-0.4,2.6v3.1
		c0.4,0.3,0.8,1,1.1,2s0.7,2,1.2,3c0.5,1,1.1,1.9,1.7,2.6c0.7,0.8,1.6,1.1,2.8,1.1c2.2-1,4.2-2,6.1-2.9c1.5-0.9,3-1.8,4.5-2.8
		s2.5-2,3-2.9c0.7-1.5,1.4-3.3,2.2-5.4c0.8-2.1,1.6-4,2.4-5.9c-0.2-0.9,0-1.7,0.7-2.6c0.7-0.9,1.1-1.7,1.1-2.5v-4.6
		c0-0.5-0.1-1.5-0.4-2.9c-0.3-1.4-0.7-2.8-1.3-4.3c-0.6-1.5-1.3-2.8-2.2-3.9C273.6,96.3,272.6,95.7,271.5,95.7z"/>
	<path class="st0" d="M319.3,76c1.2-0.2,2-0.1,2.4,0.5c0.4,0.5,1.3,1.1,2.7,1.8c1.2,0.7,2.2,1.4,3.1,2.3c0.9,0.9,1.3,1.9,1.3,3.1
		c-0.1,0.5-0.2,1.1-0.3,1.8c-0.2,1.4-0.1,2.8,0.3,4.1c0,1-0.2,2.2-0.6,3.5c-0.4,1.4-0.5,2.5-0.2,3.4c0.2,0.4,0.5,0.9,1,1.3
		c0.3,0.3,0.7,0.6,1.1,0.9c0.4,0.3,0.7,0.3,1.1,0.1c1.1-0.2,2.3-1.3,3.5-3.1c1.3-1.9,2.5-3.9,3.7-6.2c1.2-2.3,2.4-4.5,3.6-6.7
		c1.2-2.2,2.3-3.7,3.3-4.4l5.1-1.3c0.7-0.2,1.4-0.3,2.2-0.2c0.8,0.1,1.4,0.2,1.9,0.2c2.1,1.2,3.4,2.9,3.9,5c0.5,2.1,0.9,3.8,1.1,5
		c0.1,1.5-0.4,3.6-1.6,6.1c-1.1,2.5-2.6,4.6-4.3,6.2c-0.8,0.4-1.5,0.8-2.1,1.1c-0.7,0.3-1.3,0.5-2,0.7c-0.5,0-1,0-1.2-0.1
		c-0.3-0.1-0.6-0.2-1.1-0.4c-0.5-0.2-1.1-0.4-1.6-0.4c-0.5-0.1-1.1-0.1-1.7-0.1c-1.4,0-2.8,0.5-4,1.6c-1.3,1.1-2.5,2.2-3.7,3.4
		c-1.9,2.3-3.3,4.9-4.3,7.8c-1,2.9-1.6,5.6-1.6,8.1c-0.8,0.8-1.7,1.7-2.7,2.9c-1,1.1-1.8,2.5-2.4,4c-0.7,1.5-1,3.1-0.9,4.8
		c0.1,1.6-0.2,3.2-0.9,4.8c0.1,1.3,0.1,2.8,0,4.5c-0.1,1.7-0.3,3.5-0.6,5.3c-0.3,1.9-0.6,3.6-1.1,5.3c-0.4,1.7-0.9,3.2-1.5,4.5
		c-0.8,0.5-1.7,1-2.8,1.5c-1.1,0.4-2.2,0.8-3.4,1c-1.3,0.3-2.7,0.5-4.3,0.7c-0.5,0-1.3-0.4-2.1-1.3c-0.4-0.4-0.8-0.9-1.1-1.3
		l-2.3-4.6c-0.1-0.8,0-2.1,0.3-3.9c0.3-1.9,0.7-3.7,1.1-5.7c0.4-1.9,0.8-3.6,1.2-5.2c0.4-1.5,0.6-2.4,0.6-2.6
		c2.4-3.6,4-7.4,4.8-11.4c0.8-4,1.6-7.9,2.5-11.9l-1.3-10.8c-0.5-1.4-1.2-2.1-2-2.1c-0.8,0-1.7,0.1-2.5,0.3c-1.7,0.3-3,0.8-3.8,1.4
		c-0.8,0.6-1.4,1.2-2,1.9c-0.5,0.7-1.1,1.3-1.8,1.9c-0.7,0.6-1.8,1-3.4,1.2c-0.9,0-1.4-0.5-1.6-1.6c-0.2-1.1-0.4-2.1-0.7-3
		c-0.2-1-0.1-1.9,0.5-2.9c0.5-0.9,1.3-1.8,2.2-2.6c0.9-0.8,2-1.6,3.2-2.5c1.2-0.8,2.3-1.7,3.3-2.5c1.3-1.4,2.5-3,3.4-4.7
		c1-1.7,2-3.3,2.9-4.8c1-1.5,2.1-2.7,3.4-3.8C315.8,76.9,317.4,76.3,319.3,76z"/>
	<path class="st0" d="M377.9,76c1.9,0,3.4,0.7,4.6,2c1.2,1.4,1.8,2.8,1.8,4.3l-1.5,4.6c0.7,0.7,1.1,1.6,1.3,2.8
		c0.1,0.5,0.2,1.1,0.2,1.8c0,2.2-0.2,4.2-0.7,6.1c-0.5,1.9-0.7,3.9-0.7,6.2v1.3c0,0.5-0.1,1.2-0.2,1.9c-0.1,0.7-0.3,1.4-0.5,2
		c-0.2,0.8-0.4,1.6-0.7,2.5v1.8c0,1.2-0.2,2.2-0.6,2.9c-0.4,0.8-0.8,1.7-1.2,3c-0.2,0.9-0.6,1.8-1.1,2.7c-0.5,0.9-0.7,2-0.7,3.2
		c0,0.4,0.1,1,0.3,1.7c0.2,0.7,0.5,1.4,1,2.1c0.4,0.7,1,1.3,1.6,1.8c0.6,0.5,1.3,0.7,2,0.7c0.9,0,1.7-0.3,2.4-0.8
		c0.7-0.5,1.3-1.1,1.7-1.8c0.5-0.5,1.1-1,1.7-1.4c0.6-0.4,1.3-0.6,2-0.6h3.1c0.7,0,1,0.3,1.1,1c0.1,0.7,0.2,1.4,0.2,2.3
		c0,0.3-0.5,1-1.5,2c-1,1-2.1,2-3.3,3.2c-1.2,1.1-2.4,2.2-3.6,3.3c-1.2,1-2,1.7-2.5,2c-0.3,0.8-1,2.1-2.1,3.9
		c-1.1,1.9-2.3,3.7-3.6,5.7c-1.3,1.9-2.7,3.6-4.2,5.1c-1.5,1.5-2.8,2.2-3.9,2.2c-0.8,0-1.6-0.2-2.5-0.7c-0.9-0.5-1.8-1.1-2.5-2
		c-0.8-0.8-1.4-1.7-1.9-2.5c-0.5-0.9-0.7-1.7-0.7-2.6v-2.6c0-0.9-0.1-1.6-0.2-2.3c-0.1-0.7-0.5-1-1.1-1v-3.1l1.3-4.6v-7.7
		c0-1.6,0.2-3,0.7-3.9c0.4-1,0.7-2.2,0.7-3.8v-1.5c0-0.8,0.2-1.9,0.7-3.3c0.5-1.4,1-3,1.6-4.6c0.5-1.6,1.1-3.3,1.6-4.8
		c0.5-1.6,0.7-3,0.7-4.2c0-0.9-0.4-1.8-1.1-2.9c-0.7-1-1.9-1.6-3.5-1.6c-0.7,0-1.2,0.2-1.7,0.7c-0.5,0.4-1.9,0.7-4.2,0.7
		c-0.2-0.1-0.4-0.4-0.7-0.8c-0.4-0.7-0.7-1.5-0.7-2.5v-2.6c0-1,1-2.4,2.9-4.3c1.9-1.9,4.1-3.8,6.6-5.7c2.5-1.9,4.8-3.6,7.1-5.1
		C375.7,76.8,377.2,76,377.9,76z M378.3,37.4c0.4,0,1-0.1,1.7-0.2c0.7-0.2,1.4-0.3,2.2-0.5c0.8-0.2,1.5-0.3,2.2-0.5
		c0.7-0.2,1.2-0.2,1.6-0.2c1.5,0.5,2.5,1.5,2.9,2.8c0.4,1.3,1.1,2.7,2,4.1c0,0.9,0.1,1.7,0.2,2.6c0.2,0.9,0.2,1.7,0.2,2.5
		c0,0.7-0.2,1.4-0.7,2.4c-0.4,0.9-0.7,2.1-0.7,3.5c-0.2,0.8-0.5,1.7-0.9,2.8c-0.4,1.1-0.9,2.1-1.5,3c-0.6,0.9-1.3,1.7-2.1,2.3
		c-0.8,0.6-1.8,0.8-2.9,0.6c-1.5,0-3.2-0.5-5-1.6c-1.8-1-3.1-2.4-4-4c-0.8-0.7-1-1.6-0.8-3c0.2-1.3,0.3-2.5,0.3-3.4
		c0-2.9,0.5-5.4,1.5-7.2C375.7,41.4,376.9,39.4,378.3,37.4z"/>
	<path class="st0" d="M428,77.4c1.4,0.2,3,0.5,4.7,1c1.7,0.4,3.2,1.1,4.5,1.9c1.3,0.8,2.3,1.9,3.1,3.3c0.8,1.4,1,3.1,0.8,5.3
		c0,1.2-0.2,2.4-0.7,3.4c-0.5,1.1-1.1,2.1-1.8,3c-0.7,0.9-1.5,1.7-2.4,2.2c-0.9,0.5-1.6,0.8-2.3,0.8c-0.9-0.1-1.6-0.2-2.2-0.2
		c-0.6-0.1-1.1-0.1-1.4-0.1h-1H428c-1.9,0-3.9,0.1-6.2,0.2c-2.3,0.1-3.9,0.5-4.8,1.1c-0.9,0-1.4,0.3-1.6,0.8c-0.2,0.5-0.2,1.2-0.2,2
		l-2.3,3.6c-0.2,1.3-0.4,2.6-0.7,3.8c-0.2,1-0.4,2-0.7,3c-0.2,1-0.4,1.6-0.5,2v2.6l-1.3,4.6c-0.2,0.4-0.5,0.9-0.8,1.3
		c-0.2,0.4-0.4,0.8-0.7,1.2c-0.2,0.4-0.4,0.7-0.5,1.1c0,1,0.2,2.3,0.5,4c0.3,1.7,0.8,3.3,1.3,4.9c0.5,1.6,1.2,3,1.9,4.2
		c0.7,1.2,1.5,1.9,2.4,2c1.6,0,3.3-0.7,5.1-2c1.7-1.3,3.5-2.8,5.2-4.3c1.7-1.6,3.3-3,4.9-4.3c1.6-1.3,3-1.8,4.3-1.7
		c1.6,0.2,2.6,0.6,2.8,1.2c0.2,0.6,0.2,1.2,0,1.9c-0.1,1.5-0.7,3.3-1.9,5.2c-1.1,2-2.5,3.9-4.1,5.8c-1.6,1.9-3.2,3.7-4.9,5.2
		c-1.7,1.6-3.1,2.7-4.2,3.4c-3.6,2.3-6.8,4.2-9.7,5.7c-2.8,1.5-6,2.2-9.5,2c-1.5-0.1-2.8-0.9-3.8-2.4c-1-1.5-1.7-3.2-2.3-5.1
		c-0.5-1.9-1-3.8-1.2-5.7c-0.3-1.9-0.4-3.2-0.4-4.1l0.5-1.5c0-0.4-0.1-1.2-0.2-2.2c-0.1-1-0.2-2.1-0.2-3.3c-0.1-1.1-0.1-2.3-0.2-3.4
		c-0.1-1.1,0-1.9,0.1-2.5c0-3.4,0.4-6,1.1-7.9c0.8-1.9,1.1-4,1.1-6.1l1.8-4.1v-3.8c0.1-0.3,0.4-1.2,0.8-2.5c0.4-1.4,1-2.9,1.6-4.6
		c0.6-1.7,1.2-3.4,1.7-5.2c0.5-1.7,1-3.1,1.3-4.1c0-0.7,0.4-1.5,1.1-2.5c0.8-1,1.7-1.9,2.7-2.9c1-0.9,2.1-1.7,3.3-2.4
		c1.1-0.7,2.2-1,3-1c0.7-0.2,1-0.4,1.1-0.5c0.1-0.1,0.2-0.2,0.2-0.3c0-0.1,0.1-0.2,0.2-0.4c0.1-0.2,0.5-0.4,1.1-0.6
		c1.6-0.2,2.9-0.5,3.8-0.7c0.9-0.3,1.7-0.5,2.5-0.8c0.8-0.3,1.5-0.5,2.2-0.7S426.7,77.2,428,77.4z"/>
	<path class="st0" d="M500,62.8h1.8c0.9,0,2,0.3,3.4,1c1.4,0.7,2.8,1,4.3,1l4.6-1.5h6.4h3.1c1.2,0,2,0.5,2.5,1.6
		c0.2,0.4,0.3,1,0.3,1.6c0,2.3-0.3,3.9-1,4.8c-0.7,0.9-1.5,1.5-2.5,1.8c-1,0.3-2.1,0.4-3.3,0.5c-1.1,0.1-2.2,0.3-3.3,0.7
		c-1,0.4-1.9,1.3-2.5,2.5c-0.7,1.3-1,3.3-1,6c0,0.9,0.2,2.2,0.7,4.1c0.4,1.9,0.7,3.2,0.7,4.1v4.6c0,2.2,0.7,4.1,2.1,5.7
		c1.4,1.6,3.3,2.5,5.6,2.5c0.9,0,1.6-0.2,2.3-0.5c0.4-0.1,0.8-0.3,1-0.5l5.9,1h4.9h2.8c0.9,0,1.7,0.1,2.6,0.2c1.7,0.2,3,0.8,3.8,1.6
		c0.5,0,1-0.1,1.4-0.2c0.4-0.2,0.7-0.2,0.9-0.2c0.4-0.2,0.9-0.5,1.3-0.8c0.4-0.3,0.8-0.5,1-0.5h6.4c0.7-0.5,1.3-1.2,1.8-2
		c0.5-0.8,0.8-1.7,0.8-2.5V97V86.5l-1.8-8.2v-2.8c0-1.1-0.4-1.9-1.1-2.3c-0.8-0.4-1.6-0.8-2.5-1.1c-0.9-0.3-1.7-0.8-2.5-1.4
		c-0.8-0.6-1.1-1.7-1.1-3.4c0-1.3,0.7-2.5,2-3.7c1.3-1.1,2.8-1.7,4.4-1.7c1.4,0.5,2.9,1,4.4,1.5c1.3,0.3,2.8,0.6,4.3,0.9
		c1.6,0.3,3.2,0.4,4.8,0.4h1.8h4.6c1.1,0,2.3,0.1,3.8,0.4c1.4,0.3,2.7,0.7,3.9,1.3c1.2,0.6,2.1,1.4,3,2.5c0.8,1,1.2,2.4,1.2,4
		l-0.8,1.8l-3.8,0.8h-4.4c-0.8,0-1.7,0.7-2.9,2.1c-1.2,1.4-1.7,2.7-1.7,3.8v11v6.4c0,0.7,0.1,1.9,0.4,3.6c0.3,1.7,0.4,3,0.4,3.8
		c0,0.4-0.2,0.9-0.5,1.5c-0.3,0.5-0.6,1.1-0.8,1.6c-0.6,1.4-0.8,2.5-0.8,3.1v4.6v4.6c0,1.6,0.1,3.2,0.4,4.8c0.3,1.5,0.4,3,0.4,4.4
		c0,0.9-0.1,1.8-0.4,2.8c-0.3,1-0.4,2.2-0.4,3.6c0,0.8-0.1,1.4-0.2,1.8c-0.1,0.4-0.2,0.9-0.2,1.3c-0.1,0.4-0.1,0.9,0,1.4
		c0.1,0.5,0.2,1.1,0.4,1.9c0.3,1.2,1.3,2.2,2.9,3c1.6,0.8,3.3,1.6,5.1,2.2c1.8,0.7,3.4,1.3,4.8,2c1.4,0.7,2.1,1.4,2.1,2.3
		c0,0.8-0.2,1.4-0.7,1.9c-0.5,0.5-1,1-1.6,1.4c-0.7,0.4-1.4,0.9-2.3,1.3h-9h-4.6H565l-7.7-1.8l-4.6,1.8c-0.3,0-0.8,0-1.5-0.1
		c-0.7-0.1-1.3-0.2-2-0.3c-0.7-0.2-1.2-0.5-1.7-0.9c-0.5-0.4-0.7-1.1-0.7-2c0-1.2,0.5-2.2,1.6-3c1.1-0.8,2.3-1.6,3.6-2.6
		c1.3-1,2.5-2.2,3.6-3.7c1.1-1.5,1.6-3.5,1.6-6.1v-4.6v-4.6v-4.9v-4.6c0-0.8-0.3-1.7-0.9-2.9c-0.6-1.1-1.3-1.7-2.2-1.7h-4.6h-5.9
		c-0.8,0-1.9-0.3-3.3-0.9c-1.4-0.6-2.5-0.9-3.1-0.9h-3.3h-4.6H525h-3.3c-2.3,0-4.2,0.5-5.6,1.5c-1.4,1-2.1,2.6-2.1,4.9v10.5
		c-0.7,1.9-1,3-1.1,3.4c-0.1,0.4-0.2,0.9-0.2,1.6c0,0.8,0.2,1.6,0.7,2.5c0.4,0.9,0.7,2,0.7,3.4c-0.7,1.6-0.5,3,0.6,4
		c1,1,2.3,2,3.9,2.9c1.5,0.9,3,1.8,4.4,2.7c1.4,0.9,2.1,1.9,2.1,3.1c0,0.3-0.2,0.7-0.7,1.1c-0.5,0.4-1.1,0.7-1.7,0.9
		c-0.7,0.2-1.3,0.4-2,0.6c-0.7,0.2-1.1,0.2-1.5,0.2c-0.5,0-1.3-0.1-2.2-0.4c-0.9-0.3-2-0.6-3.1-1c-1.1-0.4-2.4-0.7-3.7-1
		c-1.3-0.3-2.6-0.4-3.8-0.4c-0.5,0.3-1.1,0.6-1.6,0.8c-0.5,0.2-1.1,0.4-1.6,0.5c-0.5,0.1-1,0.2-1.4,0.2H500h-4.6h-2.8
		c-1.5,0-3-0.4-4.5-1.1c-1.5-0.8-2.2-2.1-2.2-3.9c0-1.4,0.2-2.8,0.6-4.3c0.4-1.4,1.4-2.1,3-2.1l3.1-0.8c0.9,0,1.9-0.6,2.9-1.8
		c1.1-1.2,1.6-2.1,1.6-2.8v-6.4V128c0-0.9-0.3-2.3-0.9-4.4c-0.6-2.1-0.9-4.3-0.9-6.6v-7.7c0-0.3,0.1-0.9,0.2-1.8
		c0.2-0.9,0.4-1.8,0.7-2.8c0.3-1,0.5-1.9,0.7-2.8c0.2-0.9,0.2-1.5,0.2-1.8l-1.8-7.7c0-0.9,0.3-2,0.8-3.4c0.3-0.8,0.7-1.6,1-2.5v-11
		c0-0.8-0.6-1.4-1.9-1.8c-1.3-0.4-2.7-0.8-4.3-1.1c-1.6-0.3-3-0.5-4.3-0.8c-1.3-0.3-1.9-0.6-1.9-0.9c0-2.1,0.6-3.9,1.9-5.4
		c1.3-1.5,2.6-2.3,4-2.3l8.2-0.5H500z"/>
	<path class="st0" d="M646,75.5c2.3,0,3.9,0.7,4.9,2c1,1.3,1.5,3.1,1.5,5.4c0,0.4-0.2,1.4-0.5,2.9c-0.3,1.5-0.7,3.1-1.2,4.9
		c-0.5,1.8-1,3.6-1.6,5.5c-0.5,1.9-1,3.3-1.3,4.4c0,0.9-0.1,1.8-0.2,2.7c-0.1,0.9-0.5,2.2-1.2,3.7c-0.9,0.7-1.3,1.7-1.3,3.2
		c0,1.5,0,2.5,0,3.2l-0.5,8.7v6.4c0,0.3,0,0.9,0.1,1.7c0.1,0.8,0.2,1.6,0.3,2.5c0.2,0.8,0.5,1.5,0.9,2.1c0.4,0.6,1,0.9,1.8,0.9
		l2.3-3.6c0.7-0.5,1.4-1.2,2.3-2c0.9-0.8,1.7-1.6,2.6-2.4c1-0.9,2-1.8,3-2.8c0.7,0,1.2,0.3,1.6,0.8c0.4,0.5,0.7,1.1,0.7,1.8
		l-0.7,1.3c-0.4,0.9-0.9,1.5-1.3,2c-0.8,2.2-1.7,4.1-3,5.7c-1.2,1.6-2.5,3.1-3.9,4.6c-1.4,1.5-2.9,3-4.3,4.5
		c-1.5,1.5-2.9,3.3-4.2,5.2l-3.6,5.1c0,1-0.3,2-0.9,3c-0.6,1-1.3,1.9-2.1,2.5c-0.8,0.6-1.7,0.9-2.6,0.8c-0.9-0.1-1.7-0.7-2.2-1.9
		c-0.7-2-1-3.9-1-5.8c0-1.9,0.2-3.8,0.5-5.6c0.3-1.8,0.7-3.5,1-5.2c0.3-1.6,0.5-3.2,0.5-4.8v-5.9v-3.3c0-0.5-0.4-0.9-1.1-1.1
		c-0.4-0.1-0.8-0.2-1.1-0.2c-0.3,0-1.1,1-2.5,2.9c-1.3,1.9-2.8,4.1-4.5,6.6c-1.7,2.5-3.4,4.9-5.2,7.5c-1.7,2.5-3.2,4.3-4.3,5.4
		c-0.3,0.4-0.8,1.1-1.6,1.9s-1.5,1.6-2.3,2.4c-0.8,0.8-1.7,1.4-2.7,2c-1,0.6-1.9,0.9-2.6,0.9c-1.5,0-2.8-0.5-3.8-1.6
		c-1-1.1-1.7-2.4-2.3-3.9c-0.5-1.5-1-3-1.2-4.4c-0.3-1.5-0.4-2.5-0.4-3.2l-0.5-11.8l2.3-19.2c0-0.3,0.2-1.1,0.5-2.3
		c0.3-1.2,0.8-2.5,1.3-3.9c0.5-1.4,1.2-2.8,1.9-4.2c0.7-1.4,1.4-2.5,2.2-3.4c3.2-3,6.2-6.6,9.2-10.8c1.4-2,2.8-3.4,4.1-4.3
		c1.3-0.9,2.6-1.6,3.9-2c1.3-0.5,2.6-0.9,3.9-1.1c1.3-0.3,2.8-0.8,4.4-1.7c0.7,0,1.5-0.4,2.5-1.1c1-0.7,2-1.4,2.9-2h4.6h2.8
		L646,75.5z M625,93.7c-2,1.6-3.8,3.5-5.6,5.7c-1.7,2.1-3.3,4.3-4.6,6.5c-1.3,2.2-2.4,4.2-3.1,6.1c-0.8,1.9-1.1,3.4-1.1,4.5
		c0,0.5-0.1,1.6-0.2,3c-0.1,1.5-0.1,3,0.2,4.6c0.2,1.6,0.6,3,1.2,4.3c0.6,1.3,1.7,1.9,3.2,1.9c1.4,0,3.1-1.3,5-3.8
		c1.9-2.5,3.7-5.4,5.4-8.5c1.7-3.2,3.1-6.1,4.3-8.9c1.2-2.7,1.7-4.4,1.7-4.9c0-0.4,0.1-1.5,0.2-3.2c0.1-1.7,0-3.3-0.2-4.9
		c-0.3-1.6-0.9-2.7-1.8-3.4C628.6,92,627.1,92.3,625,93.7z"/>
	<path class="st0" d="M689.8,77.8c1,0,1.7,0.5,2.1,1.6c0.4,1.1,0.7,2.1,0.7,2.9c-2,6.9-3.7,13.2-5.2,18.9c-0.7,2.4-1.3,4.8-2,7.1
		c-0.7,2.4-1.2,4.5-1.7,6.5c-0.5,2-0.9,3.6-1.1,5c-0.3,1.4-0.4,2.3-0.4,2.7c0,0.8-0.1,2-0.4,3.8c-0.3,1.7-0.3,3.4,0,4.8
		c0.3,1.5,1,2.5,2.1,3c1.1,0.5,3.1-0.2,6-2c0.2-0.5,0.9-1.3,2.1-2.1c1.2-0.9,2.5-2,3.9-3.3c0.9-0.9,1.4-1.8,1.6-2.7
		c0.2-0.9,0.5-1.4,1-1.4c0-0.9,0.4-1.7,1.1-2.5c0.8-0.8,1.1-1.5,1.1-2.1c0.2-0.8,0.8-2.2,1.8-4.3c1-2.1,2.1-4.6,3.3-7.5
		c1-2.1,1.9-4.3,2.8-6.7c0.9-2.4,1.6-4.8,2.3-7c0.7-2.3,1.2-4.4,1.6-6.3c0.4-1.9,0.6-3.5,0.6-4.7c0-1.2,0.3-2.1,0.8-2.8
		c0.5-0.7,1.2-1.1,2-1.5c0.8-0.3,1.7-0.5,2.5-0.6c0.9-0.1,1.6-0.1,2.3-0.1h3.8c1.3,0,2.4,0.7,3.2,2c0.8,1.3,1.2,2.8,1.2,4.4
		c0,0.3-0.1,1.3-0.4,3c-0.3,1.7-0.6,3.6-1,5.8c-0.4,2.2-0.9,4.4-1.4,6.7c-0.5,2.3-1.1,4.2-1.6,5.7c-2.3,4.9-4.5,9.8-6.7,14.7
		c-2.2,4.9-3.3,9.6-3.3,14.2c0,0.5,0.2,1.1,0.7,1.8c0.2,0.3,0.4,0.6,0.7,0.8c1.4,0,2.9-0.4,4.3-1.3c1.5-0.9,2.8-1.8,3.9-2.8
		c1.1-1,2.2-1.9,3-2.8c0.9-0.9,1.5-1.3,1.8-1.3c0.3,0,0.7,0.2,1.1,0.5c0.4,0.3,0.7,0.7,1.1,1c0.4,0.4,0.8,0.9,1.1,1.3
		c0,0.4-0.5,1.5-1.6,3.2c-1,1.7-2.2,3.5-3.6,5.4c-1.4,1.9-2.7,3.7-3.9,5.3c-1.3,1.6-2,2.6-2.4,2.9c-1.1,0.8-2,1.4-2.9,2
		c-0.8,0.6-1.6,1.2-2.2,1.8c-0.7,0.6-1.3,1.3-2,2.1c-0.7,0.8-1.5,1.8-2.4,3c-1.4,1.4-2.9,2.4-4.4,3c-1.5,0.5-3.1,0.8-4.8,0.8
		c-0.8,0-1.5-0.2-2.2-0.7c-0.7-0.5-1.3-1.1-1.9-1.8c-0.6-0.7-1-1.5-1.3-2.3c-0.3-0.8-0.5-1.5-0.5-2v-2.8v-1.8
		c0.4-1.3,0.9-2.6,1.3-3.9c0.3-1.1,0.7-2.2,1-3.4c0.3-1.2,0.5-2.2,0.5-3.1c0-0.7-0.1-1.3-0.2-2c-0.2-0.7-0.7-1.1-1.6-1.1
		c-0.7,0-1.4,0.4-2.3,1.2c-0.9,0.8-1.7,1.7-2.6,2.8c-0.9,1-1.7,2-2.5,3c-0.8,1-1.4,1.6-1.8,2c-0.7,0.9-1.9,2.2-3.6,4
		c-1.7,1.8-3.6,3.6-5.6,5.4c-2,1.8-3.9,3.4-5.7,4.8c-1.8,1.4-3.1,2.1-3.9,2.1c-0.7,0-1.3-0.3-2-0.9c-0.7-0.6-1.2-1.3-1.7-2.1
		c-0.5-0.8-0.9-1.6-1.2-2.5c-0.3-0.8-0.5-1.4-0.5-1.7v-4.6c0-0.9,0.1-1.7,0.2-2.6c0.1-0.8,0.2-1.5,0.2-2.3c0.1-0.8,0.1-1.4,0.1-2
		c0-0.7,0.1-1.6,0.4-2.7c0.3-1.1,0.4-2.5,0.4-4c0-1.4,0.2-2.9,0.6-4.4c0.4-1.5,0.7-2.7,0.9-3.4l1.3-6.2c0.2-0.8,0.8-2.1,1.7-3.9
		c0.9-1.9,1.4-4.4,1.4-7.5c0-1.5,0.1-2.6,0.2-3.2c0.1-0.6-0.6-0.9-2-0.9c-0.7,0-1.3,0.1-2,0.3c-0.7,0.2-1.7,0.5-2.9,1
		c-0.9,0.5-1.7,1-2.6,1.3c-0.9,0.3-1.5,0.5-2,0.5c-0.7,0-1.4-0.4-2.1-1.2c-0.8-0.8-1.2-1.9-1.2-3.2c0-1.3,0.3-2.3,1-3
		c0.7-0.7,1.4-1.3,2.4-1.8c0.9-0.5,1.8-1,2.7-1.5c0.9-0.5,1.5-1.1,1.8-1.9c1.4-1.1,3.1-2.6,5.1-4.7c2-2,4-4,6.1-6
		c2.1-2,4.1-3.7,6-5.1c1.9-1.4,3.6-2.1,5.2-2.1H689.8z"/>
	<path class="st0" d="M759.1,78.8c1.2,0,2.1,0.4,2.8,1.1c0.7,0.8,1.3,1.6,1.8,2.5c0.3,0.8,0.4,1.8,0.3,3.1c-0.1,1.3-0.3,2.6-0.6,3.9
		c-0.3,1.3-0.5,2.6-0.8,3.8c-0.3,1.2-0.4,2-0.4,2.5l0.5,2.6l1.8,3.3c0.4,0,1.3-0.6,2.5-1.9c1.3-1.3,2.7-2.8,4.4-4.7
		c1.7-1.9,3.5-3.9,5.3-6c1.9-2.1,3.7-4.1,5.4-6c1.7-1.9,3.3-3.4,4.8-4.7c1.4-1.3,2.5-1.9,3.1-1.9c0.9,0,1.6,0.5,2.2,1.6
		c0.6,1.1,1.2,2.2,1.7,3.4c0.5,1.4,1,3.1,1.5,4.9c0.1,1.5,0,3.7-0.3,6.4c-0.3,2.7-0.8,5.7-1.6,8.9c-0.7,3.2-1.5,6.5-2.3,9.8
		c-0.8,3.3-1.6,6.4-2.3,9.2c-0.7,2.8-1.3,5.1-1.8,7c-0.5,1.9-0.7,2.8-0.7,3c0,0.4-0.1,1-0.2,1.6c-0.1,0.6-0.2,1.1-0.2,1.6
		c0,0.5,0.1,0.9,0.4,1.2c0.3,0.3,0.8,0.5,1.7,0.5c0.7-0.4,1.3-0.9,2-1.3c0.5-0.4,1.2-0.9,1.8-1.3c0.7-0.4,1.4-0.9,2.1-1.5
		c1.9-1.2,3.6-2.3,5.2-3.4c1.6-1,2.6-1.6,3-1.6c0.7,0,1.4,0.4,2.1,1.1c0.8,0.7,1.1,1.4,1.1,2c0,0.2-0.4,0.8-1.1,1.8
		c-0.7,1-1.6,2-2.5,3.1c-1,1.1-2,2.1-3,3c-1,0.9-1.7,1.3-2.1,1.3c0,0.9-0.3,1.7-0.9,2.5c-0.6,0.8-1.2,1.1-1.9,1.1
		c-1.7,1.9-3.2,3.7-4.4,5.4c-1.2,1.7-2.4,3.4-3.6,4.8c-1.2,1.5-2.5,2.6-3.9,3.5c-1.4,0.9-3.2,1.3-5.4,1.3c-0.8,0-1.6-0.3-2.4-0.8
		c-0.8-0.5-1.6-1.2-2.2-2c-0.7-0.8-1.2-1.7-1.6-2.6c-0.4-0.9-0.6-1.7-0.6-2.4l-0.5-5.9c0.7-2.9,1.5-6.1,2.5-9.5c1-3.4,2-6.6,2.9-9.5
		c0.9-2.5,1.6-4.9,2.1-7.2c0.5-2.3,0.9-4.5,1.1-6.6v-1.8c-0.4-3.1-1.5-4.6-3.3-4.6c-2.6,0-4.7,0.6-6.2,1.7c-1.5,1.1-2.8,2.6-3.8,4.4
		c-1,1.8-1.8,3.7-2.5,5.8c-0.7,2.1-1.5,4-2.4,5.9c-0.5,0.7-0.9,1.3-1.1,1.9c-0.2,0.6-0.1,1.3,0.1,2.2c-0.2,1.3-0.5,2.6-0.7,3.9
		c-0.3,1.3-0.6,2.6-1.1,3.8c-1.2,3.5-2.3,7-3.4,10.4c-1.1,3.4-2.1,6.6-2.9,9.6c0.5,0.9,0.5,1.4-0.2,1.6s-1.4,0.2-2,0.2
		s-1.6,0-2.8-0.1c-1.2-0.1-2.4-0.2-3.5-0.6c-1.1-0.3-2.2-0.8-3.1-1.5c-0.9-0.7-1.4-1.6-1.6-2.8c-0.2-1.9,0-3.8,0.7-5.8
		c0.7-2,1.4-3.9,2.2-5.7c0.8-1.7,1.6-3.3,2.4-4.6c0.8-1.3,1.1-2.2,1.1-2.6v-2.8v-3.1l-0.8-2.8c0-0.7,0.2-1.5,0.7-2.5
		c0.4-1,0.9-2.1,1.4-3.1c0.5-1,1-2,1.4-2.9c0.4-0.9,0.7-1.5,0.7-2v-2.3l-0.5-6.4c0-0.7-0.1-1.3-0.2-2c-0.2-0.7-0.7-1.1-1.6-1.1
		c-0.7,0-1.4,0.2-2.2,0.5c-0.8,0.3-1.6,0.7-2.5,1.1c-0.8,0.4-1.6,0.7-2.3,1.1c-0.7,0.3-1.3,0.5-1.7,0.5H735c-0.8-0.4-1-1.3-0.6-2.5
		c0.4-1.3,0.6-2.2,0.6-2.9c2.7-3.8,5.4-7.2,8-10.1c2.6-2.9,5.7-5.5,9.3-7.8c0.8-0.4,1.8-1,3.1-1.6C756.7,79.2,757.9,78.8,759.1,78.8
		z"/>
	<path class="st0" d="M843.9,52.4c1,0,1.9,0,2.9,0.1c0.9,0.1,1.8,0.2,2.6,0.5c0.8,0.3,1.5,0.7,2,1.3c0.5,0.6,0.7,1.4,0.7,2.5
		c0,0.7-0.8,1.9-2.3,3.7c-1.5,1.8-3.2,3.8-5,5.9c-1.8,2.1-3.5,4.2-5,6.2c-1.5,2-2.3,3.6-2.3,4.7c0,0.9,0.2,1.5,0.7,2
		c0.5,0.4,1.1,0.7,1.7,0.9s1.3,0.3,2,0.3c0.7,0.1,1.2,0.1,1.6,0.1h5.4c0.2-0.2,0.5-0.5,1-0.8c0.9-0.7,1.6-1,2.1-1
		c1.6,0,2.8,0.7,3.5,2c0.7,1.3,1.1,2.8,1.1,4.4v1.3v3.1c0,1.2-0.7,2.1-2,2.8c-1.3,0.7-2.8,1.1-4.3,1.5c-1.6,0.3-3.1,0.5-4.6,0.7
		c-1.5,0.1-2.4,0.2-2.7,0.2c-1.6,0-2.6-0.1-2.8-0.2c-0.2-0.2-0.7-0.2-1.3-0.2h-3.3c-0.7,0-1.6,0.3-2.8,1c-1.2,0.7-1.8,1.4-1.8,2.3
		c0,1.2-0.1,2.3-0.2,3.2c-0.1,0.9-0.2,1.7-0.3,2.4c-0.1,0.8-0.2,1.5-0.3,2.1c-0.3,0.7-0.7,1.3-1,1.8c-0.5,1.1-0.8,2-0.8,2.8v1.8
		c0,1.9-0.3,3.9-0.8,6.1c-0.6,2.2-1,3.5-1.5,3.9c-0.5,0.5-1,1.1-1.3,1.6c-0.3,0.5-0.5,1.8-0.5,3.9v3.3c0,0.7,0.1,1.4,0.3,2.4
		c0.2,0.9,0.6,1.8,1.1,2.5c0.5,0.8,1.2,1.4,2,2c0.8,0.5,1.7,0.8,2.9,0.8c1.4,0,2.6-0.4,3.6-1.1c0.4-0.3,0.9-0.7,1.3-1.1
		c0.9,0,1.6,0.2,2,0.7c0.5,0.5,1,1,1.4,1.6c0.4,0.7,0.8,1.4,1.1,2.3c0,0.9-0.4,2-1.1,3.4c-0.7,1.4-1.6,2.8-2.5,4.2
		c-1,1.4-2,2.6-3.1,3.6c-1.1,1-2,1.6-2.8,1.6s-1.5,0.6-2.2,1.9s-1.1,2.2-1.1,2.7c-0.3,0-0.9,0.1-1.8,0.3c-0.9,0.2-1.7,0.4-2.6,0.7
		c-1.1,0.3-2.2,0.6-3.3,0.8c-1.4,0-2.5-0.1-3.4-0.2c-0.8-0.2-1.2-0.7-1.2-1.6c-0.3-0.2-0.8-1-1.5-2.4c-0.7-1.4-1.3-2.9-2-4.5
		c-0.7-1.6-1.2-3.2-1.7-4.8c-0.5-1.6-0.7-2.7-0.7-3.4v-7.7c0-0.4,0.1-1.4,0.4-3c0.3-1.6,0.6-3.3,1-5.2c0.4-1.9,0.7-3.8,1-5.7
		c0.3-1.9,0.4-3.5,0.4-4.7v-2.8c0.9-2.5,1.7-4.8,2.5-6.7c0.5-1.7,1.1-3.4,1.6-4.8c0.5-1.5,0.8-2.3,0.8-2.5v-5.1
		c0-1.4-0.4-2.3-1.3-2.6c-0.7-0.5-1.4-1.1-2.1-1.6c-0.8-0.5-1.1-1.3-1.1-2.1c0-0.7,0.2-1.3,0.7-2c0.5-0.7,1.1-1.4,1.8-2.2
		c0.7-0.8,1.4-1.6,2.1-2.4c0.7-0.8,1.3-1.6,1.7-2.4c0.8-1.6,1.5-2.6,2.2-3c0.7-0.4,1.5-0.9,2.4-1.6c1.4-1.6,2.9-3,4.6-4.1
		c1.6-1.1,3.2-2.8,4.6-5.1c0.9-1.5,1.5-3.1,2-4.6c0.4-1.5,1.4-2.7,3-3.6c1.4-0.4,2.7-1.3,3.8-2.5C842.3,53.1,843.2,52.4,843.9,52.4z
		"/>
	<path class="st0" d="M869.4,76c1.9,0,3.4,0.7,4.6,2c1.2,1.4,1.8,2.8,1.8,4.3l-1.5,4.6c0.7,0.7,1.1,1.6,1.3,2.8
		c0.1,0.5,0.2,1.1,0.2,1.8c0,2.2-0.2,4.2-0.7,6.1c-0.5,1.9-0.7,3.9-0.7,6.2v1.3c0,0.5-0.1,1.2-0.2,1.9c-0.1,0.7-0.3,1.4-0.5,2
		c-0.2,0.8-0.4,1.6-0.7,2.5v1.8c0,1.2-0.2,2.2-0.6,2.9c-0.4,0.8-0.8,1.7-1.2,3c-0.2,0.9-0.6,1.8-1.1,2.7c-0.5,0.9-0.7,2-0.7,3.2
		c0,0.4,0.1,1,0.3,1.7c0.2,0.7,0.5,1.4,1,2.1c0.4,0.7,1,1.3,1.6,1.8c0.6,0.5,1.3,0.7,2,0.7c0.9,0,1.7-0.3,2.4-0.8
		c0.7-0.5,1.3-1.1,1.7-1.8c0.5-0.5,1.1-1,1.7-1.4c0.6-0.4,1.3-0.6,2-0.6h3.1c0.7,0,1,0.3,1.2,1c0.1,0.7,0.2,1.4,0.2,2.3
		c0,0.3-0.5,1-1.5,2c-1,1-2.1,2-3.3,3.2c-1.2,1.1-2.4,2.2-3.6,3.3c-1.2,1-2,1.7-2.5,2c-0.3,0.8-1,2.1-2.1,3.9
		c-1.1,1.9-2.3,3.7-3.6,5.7c-1.3,1.9-2.7,3.6-4.2,5.1c-1.5,1.5-2.8,2.2-3.9,2.2c-0.8,0-1.6-0.2-2.5-0.7c-0.9-0.5-1.8-1.1-2.5-2
		c-0.8-0.8-1.4-1.7-1.9-2.5c-0.5-0.9-0.7-1.7-0.7-2.6v-2.6c0-0.9-0.1-1.6-0.2-2.3c-0.1-0.7-0.5-1-1.1-1v-3.1l1.3-4.6v-7.7
		c0-1.6,0.2-3,0.7-3.9c0.4-1,0.7-2.2,0.7-3.8v-1.5c0-0.8,0.2-1.9,0.7-3.3c0.5-1.4,1-3,1.6-4.6c0.5-1.6,1.1-3.3,1.6-4.8
		c0.5-1.6,0.7-3,0.7-4.2c0-0.9-0.4-1.8-1.1-2.9c-0.7-1-1.9-1.6-3.5-1.6c-0.7,0-1.2,0.2-1.7,0.7c-0.5,0.4-1.9,0.7-4.2,0.7
		c-0.2-0.1-0.4-0.4-0.7-0.8c-0.4-0.7-0.7-1.5-0.7-2.5v-2.6c0-1,1-2.4,2.9-4.3c1.9-1.9,4.1-3.8,6.6-5.7c2.5-1.9,4.8-3.6,7.1-5.1
		C867.3,76.8,868.8,76,869.4,76z M869.9,37.4c0.4,0,1-0.1,1.7-0.2c0.7-0.2,1.4-0.3,2.2-0.5c0.8-0.2,1.5-0.3,2.2-0.5
		c0.7-0.2,1.2-0.2,1.6-0.2c1.5,0.5,2.5,1.5,2.9,2.8c0.4,1.3,1.1,2.7,2,4.1c0,0.9,0.1,1.7,0.2,2.6c0.2,0.9,0.2,1.7,0.2,2.5
		c0,0.7-0.2,1.4-0.7,2.4c-0.4,0.9-0.7,2.1-0.7,3.5c-0.2,0.8-0.5,1.7-0.9,2.8c-0.4,1.1-0.9,2.1-1.5,3c-0.6,0.9-1.3,1.7-2.1,2.3
		c-0.8,0.6-1.8,0.8-2.9,0.6c-1.5,0-3.2-0.5-5-1.6c-1.8-1-3.1-2.4-4-4c-0.8-0.7-1-1.6-0.8-3c0.2-1.3,0.3-2.5,0.3-3.4
		c0-2.9,0.5-5.4,1.5-7.2C867.3,41.4,868.5,39.4,869.9,37.4z"/>
	<path class="st0" d="M912.7,78.8c1.2,0,2.1,0.4,2.8,1.1c0.7,0.8,1.3,1.6,1.8,2.5c0.3,0.8,0.4,1.8,0.3,3.1c-0.1,1.3-0.3,2.6-0.6,3.9
		c-0.3,1.3-0.5,2.6-0.8,3.8c-0.3,1.2-0.4,2-0.4,2.5l0.5,2.6l1.8,3.3c0.4,0,1.3-0.6,2.5-1.9c1.3-1.3,2.7-2.8,4.4-4.7
		c1.7-1.9,3.5-3.9,5.3-6c1.9-2.1,3.7-4.1,5.4-6c1.7-1.9,3.3-3.4,4.8-4.7c1.4-1.3,2.5-1.9,3.1-1.9c0.9,0,1.6,0.5,2.2,1.6
		c0.6,1.1,1.2,2.2,1.7,3.4c0.5,1.4,1,3.1,1.5,4.9c0.1,1.5,0,3.7-0.3,6.4c-0.3,2.7-0.8,5.7-1.6,8.9c-0.7,3.2-1.5,6.5-2.3,9.8
		c-0.8,3.3-1.6,6.4-2.3,9.2c-0.7,2.8-1.3,5.1-1.8,7c-0.5,1.9-0.7,2.8-0.7,3c0,0.4-0.1,1-0.2,1.6c-0.1,0.6-0.2,1.1-0.2,1.6
		c0,0.5,0.1,0.9,0.4,1.2c0.3,0.3,0.8,0.5,1.7,0.5c0.7-0.4,1.3-0.9,2-1.3c0.5-0.4,1.2-0.9,1.8-1.3c0.7-0.4,1.4-0.9,2.1-1.5
		c1.9-1.2,3.6-2.3,5.2-3.4c1.6-1,2.6-1.6,3-1.6c0.7,0,1.4,0.4,2.1,1.1c0.8,0.7,1.1,1.4,1.1,2c0,0.2-0.4,0.8-1.1,1.8
		c-0.7,1-1.6,2-2.5,3.1c-1,1.1-2,2.1-3,3c-1,0.9-1.7,1.3-2.1,1.3c0,0.9-0.3,1.7-0.9,2.5c-0.6,0.8-1.2,1.1-1.9,1.1
		c-1.7,1.9-3.2,3.7-4.4,5.4c-1.2,1.7-2.4,3.4-3.6,4.8c-1.2,1.5-2.5,2.6-3.9,3.5c-1.4,0.9-3.2,1.3-5.4,1.3c-0.8,0-1.6-0.3-2.4-0.8
		c-0.8-0.5-1.6-1.2-2.2-2c-0.7-0.8-1.2-1.7-1.6-2.6c-0.4-0.9-0.6-1.7-0.6-2.4l-0.5-5.9c0.7-2.9,1.5-6.1,2.5-9.5c1-3.4,2-6.6,2.9-9.5
		c0.9-2.5,1.6-4.9,2.1-7.2c0.5-2.3,0.9-4.5,1.1-6.6v-1.8c-0.4-3.1-1.5-4.6-3.3-4.6c-2.6,0-4.7,0.6-6.2,1.7c-1.5,1.1-2.8,2.6-3.8,4.4
		c-1,1.8-1.8,3.7-2.5,5.8c-0.7,2.1-1.5,4-2.4,5.9c-0.5,0.7-0.9,1.3-1.1,1.9c-0.2,0.6-0.1,1.3,0.1,2.2c-0.2,1.3-0.5,2.6-0.7,3.9
		c-0.3,1.3-0.6,2.6-1.1,3.8c-1.2,3.5-2.3,7-3.4,10.4c-1.1,3.4-2.1,6.6-2.9,9.6c0.5,0.9,0.5,1.4-0.2,1.6s-1.4,0.2-2,0.2
		s-1.6,0-2.8-0.1c-1.2-0.1-2.4-0.2-3.5-0.6c-1.1-0.3-2.2-0.8-3.1-1.5c-0.9-0.7-1.4-1.6-1.6-2.8c-0.2-1.9,0-3.8,0.7-5.8
		c0.7-2,1.4-3.9,2.2-5.7c0.8-1.7,1.6-3.3,2.4-4.6c0.8-1.3,1.1-2.2,1.1-2.6v-2.8v-3.1l-0.8-2.8c0-0.7,0.2-1.5,0.7-2.5
		c0.4-1,0.9-2.1,1.4-3.1c0.5-1,1-2,1.4-2.9c0.4-0.9,0.7-1.5,0.7-2v-2.3l-0.5-6.4c0-0.7-0.1-1.3-0.2-2c-0.2-0.7-0.7-1.1-1.6-1.1
		c-0.7,0-1.4,0.2-2.2,0.5c-0.8,0.3-1.6,0.7-2.5,1.1c-0.8,0.4-1.6,0.7-2.3,1.1c-0.7,0.3-1.3,0.5-1.7,0.5h-1.3c-0.8-0.4-1-1.3-0.6-2.5
		c0.4-1.3,0.6-2.2,0.6-2.9c2.7-3.8,5.4-7.2,8-10.1c2.6-2.9,5.7-5.5,9.3-7.8c0.8-0.4,1.8-1,3.1-1.6C910.2,79.2,911.5,78.8,912.7,78.8
		z"/>
	<path class="st0" d="M989.3,78.3c2,0,3.6,0.5,5,1.5c1.4,1,2.5,2.2,3.4,3.6c0.9,1.4,1.6,2.9,2,4.5c0.4,1.6,0.6,2.9,0.6,4v1.5V98
		c0,1.2-0.3,3.4-1,6.5c-0.7,3.1-1.4,6.3-2.2,9.7c-0.8,3.3-1.6,6.4-2.2,9.3c-0.7,2.9-1,4.7-1,5.5v3.1c0,0.7-0.4,1.7-1.2,3
		c-0.8,1.4-1.7,3.1-2.6,5.1c-0.9,2-1.8,4.4-2.6,7.1c-0.8,2.7-1.2,5.8-1.2,9.3v4.6v4.6c0.9,1.5,1.4,3.2,1.7,4.9
		c0.3,1.7,1.2,3.7,2.9,5.9c0.9,1.6,1.4,3.5,1.7,5.6c0.3,2.1,0.7,3.9,1.4,5.4c0.3,2,0.6,3.5,0.7,4.6c0.2,1.1,0.3,2.1,0.4,2.9
		c0.1,0.9,0.2,1.7,0.2,2.6c0,0.9,0,2.1,0,3.6v6.2c-0.3,1.6-0.9,3-1.8,4.2c-0.9,1.1-1.8,2.2-2.9,3.2c-1,1-2.1,1.9-3.2,2.7
		c-1.1,0.8-2,1.6-2.6,2.4c-1.5,1.5-3.3,3-5.2,4.3c-1.9,1.3-3.2,2-3.9,2l-4.6,1.5h-3.1c-1,0-2.4,0.2-4.1,0.7c-1.7,0.4-3,0.7-3.8,0.7
		h-9.5c-1.5,0-2.9-0.3-4.1-1c-1.2-0.7-2.3-1.4-3.3-2.4c-1-0.9-1.9-1.9-2.7-2.9c-0.8-1-1.6-1.9-2.2-2.7c-0.7-0.3-1.4-0.9-2.1-1.7
		c-0.8-0.8-1.5-1.7-2.1-2.6c-0.7-0.9-1.2-1.9-1.6-2.9c-0.4-1-0.6-1.8-0.6-2.5v-4.6c0-1.9,0.2-3.4,0.7-4.8c0.5-1.3,1.2-2.9,2-4.8
		c0.4-1.4,1.4-3.1,3-5.2c1.5-2,2.7-3.8,3.4-5.3c0.4-0.5,1-1,1.8-1.4c0.8-0.4,1.5-0.8,2.3-1.2c0.8-0.4,1.5-0.9,2.3-1.4
		c0.8-0.5,1.4-1.1,1.8-1.9c1.5-0.9,2.8-1.7,3.8-2.5c1-0.8,2.3-1.5,3.9-2.1c0.8,0,1.6-0.2,2.4-0.7c0.8-0.5,1.6-1.1,2.4-1.8
		c0.8-0.7,1.5-1.4,2.2-2.1c0.7-0.7,1.4-1.3,2-1.7c1-0.7,1.8-1.1,2.4-1.4c0.6-0.3,0.9-0.8,0.9-1.7c0.9-0.8,1.9-1.5,3.2-2.2
		c1.3-0.7,2.3-1.5,3.2-2.4c0.5-2,1-3.9,1.5-5.7c0.4-1.5,0.8-3.1,1.1-4.7c0.3-1.6,0.5-2.8,0.5-3.7c0-1.4-0.7-2.2-2-2.5
		c-1.3-0.2-2.8-0.3-4.4-0.3h-1.3c-0.4,0-1.2-0.3-2.2-1c-1-0.7-2.1-1.4-3.2-2.4c-1.1-0.9-2-1.8-2.9-2.6c-0.8-0.8-1.2-1.4-1.2-1.7
		v-3.3c0-2.2-0.2-3.9-0.7-5c-0.5-1.1-0.7-2.5-0.7-4c0-2.3,0.6-5.2,1.7-8.6c1.1-3.4,2.5-6.9,3.9-10.2c1.5-3.4,2.9-6.5,4.2-9.3
		c1.3-2.8,2.1-4.9,2.5-6.1c0.8-0.7,1.7-1.2,2.9-1.6c1.1-0.4,1.7-1.4,1.7-3c1.6-1.3,3.5-2.8,5.7-4.6C984.7,79.2,987,78.3,989.3,78.3z
		 M972.4,176.7c-1.5,0-3,0.5-4.3,1.4c-1.3,0.9-2.7,2.2-4.3,3.7c0,0.4-0.6,1.2-1.9,2.4c-1.3,1.1-2.6,2.6-4.1,4.4
		c-1.5,1.8-2.8,4-4.1,6.5c-1.3,2.5-1.9,5.4-1.9,8.5c0,1.2,0.7,2.3,2.2,3.3c1.5,1,3.1,1.9,5,2.6c1.9,0.8,3.7,1.4,5.5,1.8
		c1.8,0.4,3,0.7,3.7,0.7c1.1,0,2.3-0.4,3.7-1.2c1.4-0.8,2.6-1.9,3.8-3.2c1.1-1.3,2.1-2.7,2.9-4.3c0.8-1.5,1.1-3.1,1.1-4.6v-6.4
		c0-0.4-0.1-1.5-0.2-3.2c-0.2-1.7-0.5-3.4-1.1-5.2c-0.5-1.8-1.3-3.4-2.2-4.9C975.3,177.4,974,176.7,972.4,176.7z M982.5,100.6
		c-1.2,0-2.2,0.6-3,1.9c-0.8,1.3-1.5,2.7-2.1,4.3c-0.6,1.6-1,3.2-1.3,4.8c-0.3,1.5-0.4,2.6-0.4,3.1v7.4c0.5,1.7,1,3.3,1.5,4.6
		c0.4,1.2,0.9,2.2,1.5,3.1c0.5,0.9,1.1,1.3,1.6,1.3l2.3-2.1c0.9-3.1,1.7-5.9,2.5-8.5c0.5-2.2,1.1-4.3,1.6-6.5
		c0.5-2.1,0.8-3.5,0.8-4.2c0-0.5,0-1.3-0.1-2.4c-0.1-1-0.2-2-0.6-3c-0.3-1-0.8-1.9-1.5-2.6C984.7,101,983.7,100.6,982.5,100.6z"/>
	<path class="st0" d="M1047.6,75.5c1.6,0,3.1,0.8,4.4,2.3c1.3,1.5,2,3.1,2,4.6c0,1.2-0.9,2.2-2.6,3c-1.7,0.8-3.7,1.6-5.9,2.3
		c-2.2,0.7-4.3,1.4-6.5,2c-2.1,0.7-3.5,1.4-4.2,2.1c-1,1-1.7,2.1-2.1,3.4c-0.4,1.3-0.7,2.5-0.7,3.9s0.2,2.6,0.7,3.8
		c0.4,1.2,1,2.3,1.6,3.3c0.8,1.5,1.7,3.1,2.7,4.8c1,1.7,2,3.6,2.9,5.8c0.9,2.2,1.6,4.6,2.2,7.4c0.6,2.7,0.9,5.8,0.9,9.2
		c0,3-1,5.9-2.9,8.9c-2,3-4.5,5.7-7.5,7.9c-2.4,1.3-4.3,2.4-5.6,3.2c-1.3,0.8-2.5,1.5-3.4,2c-1,0.5-1.9,0.8-2.9,1
		c-0.9,0.2-2.1,0.2-3.5,0.2h-5.9c-0.5,0-1.3,0.1-2.1,0.2c-0.9,0.1-1.7,0.3-2.6,0.5c-1.1,0.2-2.2,0.4-3.4,0.7h-1h-3.6
		c-3.1,0-4.6-1.5-4.6-4.4c0-0.8,0.5-2,1.5-3.6c1-1.6,2.2-3.2,3.7-4.8c1.5-1.5,3-2.9,4.7-4.1c1.6-1.2,3.1-1.8,4.3-1.8
		c0.3,0,0.9,0.2,1.6,0.7c0.8,0.5,1.7,1,2.7,1.6c1,0.5,2.2,1.1,3.5,1.6c1.3,0.5,2.8,0.7,4.4,0.7c1.1,0,2.1-0.3,3-1
		c0.9-0.7,1.7-1.4,2.4-2.4c0.7-0.9,1.2-1.9,1.5-2.9c0.3-1,0.5-1.9,0.5-2.7c0-1.9-0.7-4.1-2.1-6.8c-1.4-2.7-3-5.4-4.8-8.2
		c-1.7-2.8-3.3-5.4-4.8-7.9c-1.4-2.5-2.1-4.6-2.1-6.2v-1.8c0.4-1.9,1.1-3.8,2-5.7c0.9-2,1.9-3.8,3-5.4c1.1-1.6,2.3-3.1,3.6-4.3
		c1.3-1.3,2.7-2,4.3-2.4c0.8-0.4,1.6-1.1,2.4-2.1c0.8-1,1.6-1.9,2.2-2.8c0.9-0.9,1.7-1.7,2.4-2.5c0.7-0.8,1.4-1.3,2.2-1.6
		c0.9-0.8,2.2-1.2,4.1-1.3c1.9-0.1,3.2-0.2,4.1-0.2H1047.6z"/>
</g>
</svg>
